<svg xmlns="http://www.w3.org/2000/svg" viewBox="0 0 360 120" role="img" aria-label="Kijabe Hospital logo">
  <title>Kijabe Hospital</title>
  <rect width="360" height="120" fill="none" />
  <path d="M34 15c-14 14-16 35-12 51 5 20 20 36 18 58-2 19-7 31 6 39 12 7 28 5 38-1 10-6 14-18 24-24 7-4 22-4 30 2 11 8 18 22 31 19 10-2 17-14 23-22 5-7 18-11 24-19 7-10 9-22 4-34-6-13-20-19-33-20-14-2-18-2-27-9-12-10-23-22-39-26-12-3-21-2-30 4-7 5-12 13-17 20z" fill="#D6EAF3" />
  <rect x="104" y="13" width="16" height="90" rx="8" fill="#343A40" />
  <rect x="80" y="50" width="78" height="16" rx="8" fill="#343A40" />
  <rect x="92" y="80" width="20" height="16" rx="8" fill="#343A40" />
  <text x="170" y="40" font-family="Arial, Helvetica, sans-serif" font-size="24" fill="#0D6EFD" font-weight="700">Kijabe</text>
  <text x="170" y="70" font-family="Arial, Helvetica, sans-serif" font-size="24" fill="#343A40" font-weight="700">Hospital</text>
  <text x="170" y="95" font-family="Arial, Helvetica, sans-serif" font-size="12" fill="#6B7A90" letter-spacing="1">Health Care to God&apos;s Glory</text>
</svg>
